<?xml version="1.0" encoding="utf-8"?>
<!-- Generator: Adobe Illustrator 19.2.1, SVG Export Plug-In . SVG Version: 6.00 Build 0)  -->
<svg version="1.1" id="Layer_1" xmlns="http://www.w3.org/2000/svg" xmlns:xlink="http://www.w3.org/1999/xlink" x="0px" y="0px"
	 viewBox="0 0 212.6 166" style="enable-background:new 0 0 212.6 166;" xml:space="preserve">
<style type="text/css">
	.st0{fill:#2A2727;}
</style>
<path class="st0" d="M106.3,72.9L0,0v111.4h0C0.6,141.7,25.3,166,55.7,166c22.4,0,41.7-13.3,50.6-32.3c8.8,19.1,28.2,32.3,50.6,32.3
	c30.4,0,55.1-24.3,55.7-54.6h0V0L106.3,72.9z M54.9,145.3c-18.5,0-33.4-15-33.4-33.4h66.9C88.3,130.3,73.3,145.3,54.9,145.3z
	 M157.8,145.3c-18.5,0-33.4-15-33.4-33.4h66.9C191.2,130.3,176.2,145.3,157.8,145.3z"/>
</svg>
